<?xml version="1.0" encoding="iso-8859-1"?>
<!-- Generator: Adobe Illustrator 16.0.0, SVG Export Plug-In . SVG Version: 6.00 Build 0)  -->
<!DOCTYPE svg PUBLIC "-//W3C//DTD SVG 1.1//EN" "http://www.w3.org/Graphics/SVG/1.1/DTD/svg11.dtd">
<svg version="1.1" id="Capa_1" xmlns="http://www.w3.org/2000/svg" xmlns:xlink="http://www.w3.org/1999/xlink" x="0px" y="0px"
	 width="612px" height="612px" viewBox="0 0 612 612" style="enable-background:new 0 0 612 612;" xml:space="preserve">
<g>
	<g>
		<path d="M305.692,22.69C136.804,22.69,0,122.282,0,244.696C0,319.798,49.385,388.8,138.535,430.039V581.88
			c0,3.091,1.319,5.858,4.209,6.95c0.854,0.323,1.441,0.479,2.325,0.479c2.091,0,3.989-0.884,5.427-2.522L258.613,463.85
			c16.76,1.913,32.187,2.845,47.116,2.845C474.62,466.694,612,367.106,612,244.696C612,122.282,474.583,22.69,305.692,22.69z
			 M305.692,451.833c-15.479,0-31.589-1.044-49.259-3.195c-2.433-0.305-4.257,0.624-5.876,2.467L153.39,562.189V425.314
			c0-2.901-2.288-5.535-4.922-6.75c-83.66-38.49-133.907-103.488-133.907-173.868c0-114.22,130.586-207.147,291.283-207.147
			c160.697,0,291.357,92.928,291.357,207.147C597.201,358.912,466.389,451.833,305.692,451.833z"/>
		<path d="M368.201,161.289c-25.192,0-47.023,13.19-59.24,34.731c-12.745-21.129-35.378-34.059-61.455-34.059
			c-40.325,0-61.428,29.033-61.428,57.713c0,65.926,112.087,142.748,116.857,145.987c1.259,0.851,2.715,1.281,4.172,1.281
			c1.456,0,2.912-0.428,4.171-1.281c4.77-3.239,116.891-80.061,116.891-145.987C428.165,181.348,397.999,161.289,368.201,161.289z
			 M358.933,307.614c-21.354,20.404-42.974,36.477-51.829,42.817c-8.83-6.322-30.337-22.313-51.67-42.681
			c-35.657-34.044-54.5-64.496-54.5-88.076c0-29.445,24.141-42.855,46.57-42.855c19.438,0,45.396,9.75,54.571,39.233
			c0.966,3.105,3.841,4.513,7.091,4.513c0.022,0,0.041,0,0.062,0c3.276,0,6.148-1.49,7.065-4.636
			c8.744-29.851,32.544-40.132,51.904-40.132c21.727,0,45.109,13.799,45.109,43.702
			C413.307,243.043,394.508,273.629,358.933,307.614z"/>
	</g>
</g>
<g>
</g>
<g>
</g>
<g>
</g>
<g>
</g>
<g>
</g>
<g>
</g>
<g>
</g>
<g>
</g>
<g>
</g>
<g>
</g>
<g>
</g>
<g>
</g>
<g>
</g>
<g>
</g>
<g>
</g>
</svg>
